<svg width="420" height="150" viewBox="0 0 420 150" fill="none" xmlns="http://www.w3.org/2000/svg">
<rect y="1" width="148" height="148" fill="white" fill-opacity="0.01"/>
<path d="M44.9075 71.6061C44.1017 70.3227 42.2315 70.3227 41.4258 71.6061L6.49666 127.238C5.60765 128.654 6.61932 130.5 8.28437 130.5H78.049C79.714 130.5 80.7257 128.654 79.8367 127.238L44.9075 71.6061Z" fill="#E80053"/>
<rect x="110.274" y="57.8091" width="57.5556" height="57.5556" rx="2.05556" transform="rotate(147.583 110.274 57.8091)" fill="#33C4DE"/>
<circle cx="103.578" cy="101.021" r="28.7778" transform="rotate(147.583 103.578 101.021)" fill="#FFBD18"/>
<path d="M181.495 43.8543V108H170.833V43.8543H181.495ZM211.883 63.0203C214.675 63.0203 217.236 63.4664 219.567 64.3585C221.927 65.2506 223.956 66.56 225.653 68.2867C227.351 69.9845 228.675 72.0853 229.625 74.589C230.574 77.0639 231.049 79.8985 231.049 83.0928C231.049 83.8986 231.006 84.5749 230.92 85.1217C230.862 85.6397 230.733 86.0569 230.531 86.3735C230.359 86.6613 230.114 86.8771 229.797 87.021C229.481 87.1361 229.078 87.1937 228.589 87.1937H201.221C201.538 91.7406 202.761 95.0788 204.89 97.2083C207.02 99.3379 209.84 100.403 213.351 100.403C215.078 100.403 216.56 100.201 217.797 99.7983C219.063 99.3954 220.157 98.9494 221.078 98.4602C222.027 97.9709 222.848 97.5249 223.538 97.122C224.258 96.7191 224.948 96.5177 225.61 96.5177C226.042 96.5177 226.416 96.604 226.733 96.7767C227.049 96.9493 227.323 97.1939 227.553 97.5105L230.661 101.395C229.481 102.777 228.157 103.942 226.689 104.892C225.222 105.813 223.682 106.561 222.071 107.137C220.488 107.683 218.862 108.072 217.193 108.302C215.552 108.532 213.955 108.647 212.401 108.647C209.322 108.647 206.459 108.144 203.811 107.137C201.164 106.101 198.861 104.59 196.904 102.604C194.948 100.59 193.408 98.1148 192.286 95.1795C191.163 92.2154 190.602 88.7908 190.602 84.9058C190.602 81.8842 191.091 79.0495 192.07 76.402C193.048 73.7257 194.444 71.409 196.257 69.4522C198.099 67.4665 200.329 65.8981 202.948 64.747C205.595 63.5959 208.574 63.0203 211.883 63.0203ZM212.099 70.6608C208.991 70.6608 206.559 71.5385 204.804 73.294C203.048 75.0494 201.926 77.5387 201.437 80.7618H221.466C221.466 79.3805 221.279 78.0855 220.905 76.8768C220.531 75.6394 219.955 74.5602 219.178 73.6393C218.401 72.7184 217.423 71.999 216.243 71.481C215.063 70.9342 213.682 70.6608 212.099 70.6608ZM239.698 122.461V63.711H246.216C246.907 63.711 247.497 63.8693 247.986 64.1858C248.475 64.5024 248.792 64.9916 248.936 65.6535L249.799 69.7543C251.583 67.7111 253.627 66.0564 255.929 64.7902C258.26 63.5239 260.979 62.8908 264.087 62.8908C266.505 62.8908 268.706 63.3944 270.692 64.4017C272.706 65.4089 274.433 66.8765 275.872 68.8047C277.339 70.704 278.462 73.0638 279.239 75.884C280.045 78.6754 280.447 81.8842 280.447 85.5102C280.447 88.8196 280.001 91.8844 279.109 94.7047C278.217 97.5249 276.937 99.971 275.267 102.043C273.627 104.115 271.627 105.741 269.267 106.921C266.936 108.072 264.317 108.647 261.411 108.647C258.907 108.647 256.778 108.273 255.022 107.525C253.296 106.748 251.742 105.683 250.36 104.331V122.461H239.698ZM260.418 71.3083C258.202 71.3083 256.303 71.7832 254.72 72.7328C253.166 73.6537 251.713 74.9631 250.36 76.661V96.5177C251.569 98.0141 252.878 99.0645 254.288 99.6688C255.727 100.244 257.267 100.532 258.907 100.532C260.519 100.532 261.972 100.23 263.267 99.6257C264.591 99.0213 265.699 98.1004 266.591 96.863C267.512 95.6256 268.217 94.0716 268.706 92.201C269.195 90.3017 269.44 88.0714 269.44 85.5102C269.44 82.9202 269.224 80.7331 268.792 78.9488C268.39 77.1358 267.8 75.6682 267.023 74.5458C266.246 73.4235 265.296 72.6033 264.174 72.0853C263.08 71.5673 261.828 71.3083 260.418 71.3083ZM323.22 108H318.428C317.421 108 316.629 107.856 316.054 107.568C315.478 107.252 315.047 106.633 314.759 105.712L313.809 102.561C312.687 103.568 311.579 104.46 310.485 105.237C309.421 105.986 308.313 106.619 307.162 107.137C306.01 107.655 304.787 108.043 303.492 108.302C302.197 108.561 300.758 108.691 299.176 108.691C297.305 108.691 295.578 108.446 293.996 107.957C292.413 107.439 291.046 106.676 289.895 105.669C288.773 104.662 287.895 103.41 287.262 101.913C286.629 100.417 286.312 98.676 286.312 96.6903C286.312 95.0212 286.744 93.3809 287.607 91.7693C288.499 90.129 289.967 88.6613 292.01 87.3663C294.053 86.0425 296.773 84.949 300.169 84.0857C303.564 83.2223 307.78 82.7331 312.816 82.618V80.028C312.816 77.0639 312.183 74.8768 310.917 73.4667C309.68 72.0278 307.867 71.3083 305.478 71.3083C303.751 71.3083 302.312 71.5098 301.161 71.9127C300.01 72.3155 299.003 72.776 298.14 73.294C297.305 73.7832 296.528 74.2293 295.809 74.6322C295.089 75.035 294.298 75.2365 293.435 75.2365C292.715 75.2365 292.096 75.0494 291.578 74.6753C291.06 74.3012 290.643 73.8408 290.327 73.294L288.384 69.8838C293.478 65.2218 299.622 62.8908 306.816 62.8908C309.406 62.8908 311.708 63.3225 313.723 64.1858C315.766 65.0204 317.493 66.2003 318.903 67.7255C320.313 69.2219 321.378 71.0205 322.097 73.1213C322.845 75.2221 323.22 77.5243 323.22 80.028V108ZM302.5 101.352C303.593 101.352 304.6 101.252 305.521 101.05C306.442 100.849 307.305 100.547 308.111 100.144C308.946 99.7408 309.737 99.2516 310.485 98.676C311.262 98.0717 312.039 97.3666 312.816 96.5608V89.093C309.708 89.2369 307.104 89.5103 305.003 89.9132C302.931 90.2873 301.262 90.7765 299.996 91.3808C298.73 91.9852 297.823 92.6902 297.276 93.496C296.758 94.3018 296.499 95.1795 296.499 96.1292C296.499 97.9997 297.046 99.3379 298.14 100.144C299.262 100.949 300.715 101.352 302.5 101.352ZM347.899 120.173C347.582 120.921 347.165 121.482 346.647 121.856C346.158 122.259 345.395 122.461 344.359 122.461H336.416L344.704 104.719L326.79 63.711H336.114C336.978 63.711 337.639 63.9124 338.1 64.3153C338.56 64.7182 338.906 65.1787 339.136 65.6967L348.589 88.6613C348.906 89.4096 349.179 90.1866 349.41 90.9923C349.64 91.7981 349.841 92.6039 350.014 93.4097C350.244 92.5751 350.489 91.7693 350.748 90.9923C351.036 90.2153 351.338 89.4239 351.654 88.6182L360.547 65.6967C360.777 65.1211 361.151 64.6463 361.669 64.2722C362.216 63.898 362.82 63.711 363.482 63.711H372.029L347.899 120.173ZM412.925 108H408.134C407.127 108 406.335 107.856 405.76 107.568C405.184 107.252 404.752 106.633 404.465 105.712L403.515 102.561C402.393 103.568 401.285 104.46 400.191 105.237C399.126 105.986 398.018 106.619 396.867 107.137C395.716 107.655 394.493 108.043 393.198 108.302C391.903 108.561 390.464 108.691 388.881 108.691C387.011 108.691 385.284 108.446 383.701 107.957C382.119 107.439 380.752 106.676 379.601 105.669C378.478 104.662 377.601 103.41 376.967 101.913C376.334 100.417 376.018 98.676 376.018 96.6903C376.018 95.0212 376.449 93.3809 377.313 91.7693C378.205 90.129 379.673 88.6613 381.716 87.3663C383.759 86.0425 386.478 84.949 389.874 84.0857C393.27 83.2223 397.486 82.7331 402.522 82.618V80.028C402.522 77.0639 401.889 74.8768 400.623 73.4667C399.385 72.0278 397.572 71.3083 395.184 71.3083C393.457 71.3083 392.018 71.5098 390.867 71.9127C389.716 72.3155 388.709 72.776 387.845 73.294C387.011 73.7832 386.234 74.2293 385.514 74.6322C384.795 75.035 384.004 75.2365 383.14 75.2365C382.421 75.2365 381.802 75.0494 381.284 74.6753C380.766 74.3012 380.349 73.8408 380.032 73.294L378.09 69.8838C383.183 65.2218 389.327 62.8908 396.522 62.8908C399.112 62.8908 401.414 63.3225 403.429 64.1858C405.472 65.0204 407.198 66.2003 408.609 67.7255C410.019 69.2219 411.083 71.0205 411.803 73.1213C412.551 75.2221 412.925 77.5243 412.925 80.028V108ZM392.205 101.352C393.299 101.352 394.306 101.252 395.227 101.05C396.148 100.849 397.011 100.547 397.817 100.144C398.651 99.7408 399.443 99.2516 400.191 98.676C400.968 98.0717 401.745 97.3666 402.522 96.5608V89.093C399.414 89.2369 396.81 89.5103 394.709 89.9132C392.637 90.2873 390.968 90.7765 389.702 91.3808C388.435 91.9852 387.529 92.6902 386.982 93.496C386.464 94.3018 386.205 95.1795 386.205 96.1292C386.205 97.9997 386.752 99.3379 387.845 100.144C388.968 100.949 390.421 101.352 392.205 101.352Z" fill="#2C3239"/>
</svg>
